<svg xmlns="http://www.w3.org/2000/svg" width="1280" height="640" viewBox="0 0 1280 640">

  <!-- Background -->
  <rect width="1280" height="640" fill="#0d0221"/>

  <!-- CVT archive scatter left side: calibration survivors + occupied centroids -->
  <!-- Survivors: small grey dots scattered in behavioral space -->
  <circle cx="108" cy="148" r="3.5" fill="#3b0f70" opacity="0.5"/>
  <circle cx="142" cy="135" r="3.5" fill="#3b0f70" opacity="0.5"/>
  <circle cx="178" cy="142" r="3.5" fill="#3b0f70" opacity="0.5"/>
  <circle cx="212" cy="130" r="3.5" fill="#3b0f70" opacity="0.5"/>
  <circle cx="248" cy="138" r="3.5" fill="#3b0f70" opacity="0.5"/>
  <circle cx="288" cy="144" r="3.5" fill="#3b0f70" opacity="0.5"/>
  <circle cx="326" cy="135" r="3.5" fill="#3b0f70" opacity="0.5"/>
  <circle cx="368" cy="148" r="3.5" fill="#3b0f70" opacity="0.5"/>
  <circle cx="408" cy="140" r="3.5" fill="#3b0f70" opacity="0.5"/>
  <circle cx="448" cy="152" r="3.5" fill="#3b0f70" opacity="0.5"/>

  <circle cx="96"  cy="210" r="3.5" fill="#3b0f70" opacity="0.5"/>
  <circle cx="130" cy="222" r="3.5" fill="#3b0f70" opacity="0.5"/>
  <circle cx="165" cy="208" r="3.5" fill="#3b0f70" opacity="0.5"/>
  <circle cx="204" cy="218" r="3.5" fill="#3b0f70" opacity="0.5"/>
  <circle cx="242" cy="205" r="3.5" fill="#3b0f70" opacity="0.5"/>
  <circle cx="280" cy="215" r="3.5" fill="#3b0f70" opacity="0.5"/>
  <circle cx="316" cy="208" r="3.5" fill="#3b0f70" opacity="0.5"/>
  <circle cx="354" cy="220" r="3.5" fill="#3b0f70" opacity="0.5"/>
  <circle cx="392" cy="210" r="3.5" fill="#3b0f70" opacity="0.5"/>
  <circle cx="432" cy="218" r="3.5" fill="#3b0f70" opacity="0.5"/>
  <circle cx="466" cy="205" r="3.5" fill="#3b0f70" opacity="0.5"/>

  <circle cx="88"  cy="278" r="3.5" fill="#3b0f70" opacity="0.5"/>
  <circle cx="120" cy="288" r="3.5" fill="#3b0f70" opacity="0.5"/>
  <circle cx="156" cy="275" r="3.5" fill="#3b0f70" opacity="0.5"/>
  <circle cx="192" cy="284" r="3.5" fill="#3b0f70" opacity="0.5"/>
  <circle cx="228" cy="278" r="3.5" fill="#3b0f70" opacity="0.5"/>
  <circle cx="264" cy="286" r="3.5" fill="#3b0f70" opacity="0.5"/>
  <circle cx="300" cy="275" r="3.5" fill="#3b0f70" opacity="0.5"/>
  <circle cx="338" cy="284" r="3.5" fill="#3b0f70" opacity="0.5"/>
  <circle cx="376" cy="278" r="3.5" fill="#3b0f70" opacity="0.5"/>
  <circle cx="412" cy="288" r="3.5" fill="#3b0f70" opacity="0.5"/>
  <circle cx="450" cy="276" r="3.5" fill="#3b0f70" opacity="0.5"/>

  <circle cx="100" cy="348" r="3.5" fill="#3b0f70" opacity="0.5"/>
  <circle cx="136" cy="358" r="3.5" fill="#3b0f70" opacity="0.5"/>
  <circle cx="172" cy="344" r="3.5" fill="#3b0f70" opacity="0.5"/>
  <circle cx="208" cy="354" r="3.5" fill="#3b0f70" opacity="0.5"/>
  <circle cx="244" cy="348" r="3.5" fill="#3b0f70" opacity="0.5"/>
  <circle cx="280" cy="356" r="3.5" fill="#3b0f70" opacity="0.5"/>
  <circle cx="316" cy="345" r="3.5" fill="#3b0f70" opacity="0.5"/>
  <circle cx="352" cy="355" r="3.5" fill="#3b0f70" opacity="0.5"/>
  <circle cx="388" cy="348" r="3.5" fill="#3b0f70" opacity="0.5"/>
  <circle cx="428" cy="357" r="3.5" fill="#3b0f70" opacity="0.5"/>

  <circle cx="112" cy="418" r="3.5" fill="#3b0f70" opacity="0.5"/>
  <circle cx="150" cy="428" r="3.5" fill="#3b0f70" opacity="0.5"/>
  <circle cx="188" cy="415" r="3.5" fill="#3b0f70" opacity="0.5"/>
  <circle cx="224" cy="424" r="3.5" fill="#3b0f70" opacity="0.5"/>
  <circle cx="260" cy="418" r="3.5" fill="#3b0f70" opacity="0.5"/>
  <circle cx="296" cy="426" r="3.5" fill="#3b0f70" opacity="0.5"/>
  <circle cx="332" cy="416" r="3.5" fill="#3b0f70" opacity="0.5"/>
  <circle cx="368" cy="425" r="3.5" fill="#3b0f70" opacity="0.5"/>

  <circle cx="128" cy="488" r="3.5" fill="#3b0f70" opacity="0.5"/>
  <circle cx="166" cy="498" r="3.5" fill="#3b0f70" opacity="0.5"/>
  <circle cx="204" cy="484" r="3.5" fill="#3b0f70" opacity="0.5"/>
  <circle cx="242" cy="494" r="3.5" fill="#3b0f70" opacity="0.5"/>
  <circle cx="278" cy="488" r="3.5" fill="#3b0f70" opacity="0.5"/>

  <!-- CVT centroids: occupied (magma colors), sized by quality -->
  <!-- fast + compact -->
  <circle cx="108" cy="148" r="14" fill="#b02840" stroke="#de4968" stroke-width="1"/>
  <!-- fast + medium -->
  <circle cx="212" cy="130" r="14" fill="#de4968" stroke="#fe9f6d" stroke-width="1"/>
  <!-- fast + spread -->
  <circle cx="326" cy="135" r="14" fill="#fe9f6d" stroke="#fece91" stroke-width="1"/>
  <!-- fast + very spread: empty -->
  <circle cx="448" cy="152" r="9"  fill="#1a0535" stroke="#3b0f70" stroke-width="0.8"/>
  <!-- med-fast + compact -->
  <circle cx="96"  cy="210" r="14" fill="#fe9f6d" stroke="#fece91" stroke-width="1"/>
  <!-- med-fast + medium -->
  <circle cx="204" cy="218" r="14" fill="#fece91" stroke="#fece91" stroke-width="1.2"/>
  <!-- med-fast + spread -->
  <circle cx="316" cy="208" r="14" fill="#fe9f6d" stroke="#fece91" stroke-width="1"/>
  <!-- med-fast + very spread -->
  <circle cx="432" cy="218" r="14" fill="#de4968" stroke="#fe9f6d" stroke-width="1"/>
  <!-- medium + compact -->
  <circle cx="88"  cy="278" r="14" fill="#fe9f6d" stroke="#fece91" stroke-width="1"/>
  <!-- medium + medium: BEST -->
  <circle cx="228" cy="278" r="18" fill="#fece91" stroke="#ffffff" stroke-width="1.5"/>
  <!-- medium + spread -->
  <circle cx="376" cy="278" r="14" fill="#fe9f6d" stroke="#fece91" stroke-width="1"/>
  <!-- medium + very spread -->
  <circle cx="450" cy="276" r="14" fill="#8c2981" stroke="#de4968" stroke-width="1"/>
  <!-- slow + compact -->
  <circle cx="100" cy="348" r="14" fill="#de4968" stroke="#fe9f6d" stroke-width="1"/>
  <!-- slow + medium -->
  <circle cx="244" cy="348" r="14" fill="#de4968" stroke="#fe9f6d" stroke-width="1"/>
  <!-- slow + spread -->
  <circle cx="388" cy="348" r="14" fill="#8c2981" stroke="#de4968" stroke-width="1"/>
  <!-- slow + very spread: empty -->
  <circle cx="428" cy="357" r="9"  fill="#1a0535" stroke="#3b0f70" stroke-width="0.8"/>
  <!-- very slow + compact -->
  <circle cx="150" cy="428" r="12" fill="#3b0f70" stroke="#8c2981" stroke-width="1"/>
  <!-- very slow + medium: empty -->
  <circle cx="296" cy="426" r="9"  fill="#1a0535" stroke="#3b0f70" stroke-width="0.8"/>

  <!-- Axis labels -->
  <text x="80" y="526"
    font-family="-apple-system, BlinkMacSystemFont, 'Segoe UI', sans-serif"
    font-size="18" fill="#3b0f70" opacity="0.7"
    letter-spacing="0.05em">compact</text>
  <text x="400" y="526"
    font-family="-apple-system, BlinkMacSystemFont, 'Segoe UI', sans-serif"
    font-size="18" fill="#3b0f70" opacity="0.7"
    letter-spacing="0.05em">spread</text>
  <text x="80" y="555"
    font-family="-apple-system, BlinkMacSystemFont, 'Segoe UI', sans-serif"
    font-size="14" fill="#3b0f70" opacity="0.5">gyradius →</text>

  <!-- Vertical divider -->
  <line x1="576" y1="80" x2="576" y2="560" stroke="#ffffff" stroke-width="1" opacity="0.06"/>

  <!-- biota wordmark -->
  <text x="648" y="248"
    font-family="ui-monospace, 'SF Mono', Menlo, Consolas, monospace"
    font-size="120" font-weight="700"
    fill="#ffffff" opacity="0.95"
    letter-spacing="-4">biota</text>

  <!-- Tagline -->
  <text x="652" y="308"
    font-family="-apple-system, BlinkMacSystemFont, 'Segoe UI', sans-serif"
    font-size="26" font-weight="400"
    fill="#a78bfa" opacity="0.9">CVT-MAP-Elites + signal field ecosystem</text>

  <!-- Divider -->
  <line x1="652" y1="346" x2="1180" y2="346" stroke="#ffffff" stroke-width="1" opacity="0.08"/>

  <!-- Stats -->
  <text x="652" y="396"
    font-family="-apple-system, BlinkMacSystemFont, 'Segoe UI', sans-serif"
    font-size="22" fill="#fe9f6d" font-weight="600">1,024 cells · 18 descriptors · 3 nodes</text>

  <!-- Pills -->
  <rect x="652" y="424" width="212" height="36" rx="18" fill="#3b0f70" opacity="0.8"/>
  <text x="758" y="448"
    font-family="-apple-system, BlinkMacSystemFont, 'Segoe UI', sans-serif"
    font-size="16" fill="#c4b5fd" text-anchor="middle">CVT-MAP-Elites</text>

  <rect x="876" y="424" width="152" height="36" rx="18" fill="#3b0f70" opacity="0.8"/>
  <text x="952" y="448"
    font-family="-apple-system, BlinkMacSystemFont, 'Segoe UI', sans-serif"
    font-size="16" fill="#c4b5fd" text-anchor="middle">Flow-Lenia</text>

  <rect x="1040" y="424" width="132" height="36" rx="18" fill="#1a0f2e" opacity="0.8"/>
  <text x="1106" y="448"
    font-family="-apple-system, BlinkMacSystemFont, 'Segoe UI', sans-serif"
    font-size="16" fill="#3cdcc8" text-anchor="middle">Signal Field</text>

  <!-- URL -->
  <text x="652" y="528"
    font-family="ui-monospace, 'SF Mono', Menlo, Consolas, monospace"
    font-size="20" fill="#ffffff" opacity="0.28">biota-atlas.pages.dev</text>

</svg>
